<?xml version="1.0" encoding="UTF-8" standalone="no"?>
<!-- Created with Inkscape (http://www.inkscape.org/) -->

<svg
   xmlns:dc="http://purl.org/dc/elements/1.1/"
   xmlns:cc="http://creativecommons.org/ns#"
   xmlns:rdf="http://www.w3.org/1999/02/22-rdf-syntax-ns#"
   xmlns:svg="http://www.w3.org/2000/svg"
   xmlns="http://www.w3.org/2000/svg"
   xmlns:sodipodi="http://sodipodi.sourceforge.net/DTD/sodipodi-0.dtd"
   xmlns:inkscape="http://www.inkscape.org/namespaces/inkscape"
   width="210mm"
   height="297mm"
   viewBox="0 0 744.09448819 1052.3622047"
   id="svg2"
   version="1.1"
   inkscape:version="0.91 r13725"
   sodipodi:docname="circ_progress.svg">
  <defs
     id="defs4" />
  <sodipodi:namedview
     id="base"
     pagecolor="#000000"
     bordercolor="#666666"
     borderopacity="1.0"
     inkscape:pageopacity="0"
     inkscape:pageshadow="2"
     inkscape:zoom="1"
     inkscape:cx="413.67454"
     inkscape:cy="621.42849"
     inkscape:document-units="px"
     inkscape:current-layer="g4189"
     showgrid="false"
     showguides="true"
     inkscape:guide-bbox="true"
     inkscape:snap-bbox="false"
     inkscape:bbox-nodes="true"
     inkscape:snap-nodes="false"
     inkscape:snap-object-midpoints="false"
     inkscape:snap-center="true"
     inkscape:snap-others="false"
     inkscape:window-width="1280"
     inkscape:window-height="685"
     inkscape:window-x="0"
     inkscape:window-y="0"
     inkscape:window-maximized="1">
    <sodipodi:guide
       position="361,612.00001"
       orientation="0,1"
       id="guide4159" />
    <sodipodi:guide
       position="361,612.00001"
       orientation="1,0"
       id="guide4161" />
  </sodipodi:namedview>
  <metadata
     id="metadata7">
    <rdf:RDF>
      <cc:Work
         rdf:about="">
        <dc:format>image/svg+xml</dc:format>
        <dc:type
           rdf:resource="http://purl.org/dc/dcmitype/StillImage" />
        <dc:title></dc:title>
      </cc:Work>
    </rdf:RDF>
  </metadata>
  <g
     inkscape:label="Layer 1"
     inkscape:groupmode="layer"
     id="layer1">
    <g
       id="g4189"
       style="fill:#eee0fd;fill-opacity:0.90499997">
      <path
         inkscape:transform-center-x="105.12103"
         sodipodi:nodetypes="csccscc"
         inkscape:connector-curvature="0"
         id="path4144"
         d="m 242.44062,379.61934 c -4.68667,-2.70585 -6.99177,-7.48743 -5.14857,-10.67994 1.84321,-3.19253 7.13671,-3.58705 11.82339,-0.8812 l 20.20187,11.66356 c 4.68668,2.70585 6.99177,7.48743 5.14856,10.67995 -1.8432,3.19252 -7.1367,3.58704 -11.82338,0.88119 z"
         style="opacity:0.93999999;fill:#eee0fd;fill-opacity:0.8627451;fill-rule:evenodd;stroke:none;stroke-width:4.07892084;stroke-linecap:round;stroke-linejoin:round;stroke-miterlimit:4;stroke-dasharray:none;stroke-dashoffset:0;stroke-opacity:1"
         inkscape:transform-center-y="-60.691655" />
      <path
         style="opacity:0.93999999;fill:#eee0fd;fill-opacity:0.78431373;fill-rule:evenodd;stroke:none;stroke-width:4.07892084;stroke-linecap:round;stroke-linejoin:round;stroke-miterlimit:4;stroke-dasharray:none;stroke-dashoffset:0;stroke-opacity:1"
         d="m 227.95313,447.03703 c -5.4117,0 -9.79876,-2.98842 -9.79876,-6.67482 0,-3.68641 4.38705,-6.67483 9.79876,-6.67483 l 23.32711,0 c 5.41171,0 9.79876,2.98842 9.79876,6.67483 0,3.6864 -4.38705,6.67482 -9.79876,6.67482 z"
         id="path4167"
         inkscape:connector-curvature="0"
         sodipodi:nodetypes="csccscc"
         inkscape:transform-center-x="121.38331" />
      <path
         inkscape:transform-center-x="105.12103"
         sodipodi:nodetypes="csccscc"
         inkscape:connector-curvature="0"
         id="path4169"
         d="m 249.11544,512.66621 c -4.68667,2.70585 -9.98018,2.31133 -11.82338,-0.88118 -1.84321,-3.19253 0.46188,-7.97411 5.14856,-10.67996 l 20.20187,-11.66356 c 4.68668,-2.70585 9.98018,-2.31133 11.82339,0.8812 1.8432,3.19251 -0.46189,7.97409 -5.14857,10.67994 z"
         style="opacity:0.93999999;fill:#eee0fd;fill-opacity:0.70588235;fill-rule:evenodd;stroke:none;stroke-width:4.07892084;stroke-linecap:round;stroke-linejoin:round;stroke-miterlimit:4;stroke-dasharray:none;stroke-dashoffset:0;stroke-opacity:1"
         inkscape:transform-center-y="60.691653" />
      <path
         inkscape:transform-center-y="105.12103"
         style="opacity:0.93999999;fill:#eee0fd;fill-opacity:0.62745098;fill-rule:evenodd;stroke:none;stroke-width:4.07892084;stroke-linecap:round;stroke-linejoin:round;stroke-miterlimit:4;stroke-dasharray:none;stroke-dashoffset:0;stroke-opacity:1"
         d="m 300.25713,558.92159 c -2.70585,4.68667 -7.48742,6.99176 -10.67994,5.14856 -3.19253,-1.8432 -3.58705,-7.13671 -0.88119,-11.82339 l 11.66355,-20.20188 c 2.70585,-4.68667 7.48742,-6.99176 10.67996,-5.14855 3.19251,1.84319 3.58703,7.13671 0.88117,11.82338 z"
         id="path4171"
         inkscape:connector-curvature="0"
         sodipodi:nodetypes="csccscc"
         inkscape:transform-center-x="60.691654" />
      <path
         sodipodi:nodetypes="csccscc"
         inkscape:connector-curvature="0"
         id="path4173"
         d="m 367.67482,573.40908 c 0,5.4117 -2.98841,9.79875 -6.67482,9.79875 -3.68641,1e-5 -6.67483,-4.38705 -6.67482,-9.79876 l -10e-6,-23.32712 c 0,-5.4117 2.98841,-9.79875 6.67484,-9.79875 3.68639,-10e-6 6.67481,4.38706 6.6748,9.79876 z"
         style="opacity:0.93999999;fill:#eee0fd;fill-opacity:0.54901961;fill-rule:evenodd;stroke:none;stroke-width:4.07892084;stroke-linecap:round;stroke-linejoin:round;stroke-miterlimit:4;stroke-dasharray:none;stroke-dashoffset:0;stroke-opacity:1"
         inkscape:transform-center-y="121.38331" />
      <path
         inkscape:transform-center-y="105.12103"
         style="opacity:0.93999999;fill:#eee0fd;fill-opacity:0.47058824;fill-rule:evenodd;stroke:none;stroke-width:4.07892084;stroke-linecap:round;stroke-linejoin:round;stroke-miterlimit:4;stroke-dasharray:none;stroke-dashoffset:0;stroke-opacity:1"
         d="m 433.304,552.24677 c 2.70585,4.68667 2.31134,9.98017 -0.88118,11.82337 -3.19253,1.84322 -7.97411,-0.46188 -10.67995,-5.14856 L 410.0793,538.7197 c -2.70585,-4.68667 -2.31134,-9.98017 0.88121,-11.82338 3.1925,-1.84321 7.97408,0.4619 10.67993,5.14857 z"
         id="path4175"
         inkscape:connector-curvature="0"
         sodipodi:nodetypes="csccscc"
         inkscape:transform-center-x="-60.691652" />
      <path
         inkscape:transform-center-x="-105.12103"
         sodipodi:nodetypes="csccscc"
         inkscape:connector-curvature="0"
         id="path4177"
         d="m 479.55938,501.10508 c 4.68667,2.70585 6.99177,7.48741 5.14856,10.67993 -1.8432,3.19254 -7.13671,3.58705 -11.82338,0.88119 l -20.20189,-11.66355 c -4.68667,-2.70585 -6.99177,-7.48742 -5.14854,-10.67996 1.84318,-3.19251 7.1367,-3.58702 11.82337,-0.88117 z"
         style="opacity:0.93999999;fill:#eee0fd;fill-opacity:0.39215686;fill-rule:evenodd;stroke:none;stroke-width:4.07892084;stroke-linecap:round;stroke-linejoin:round;stroke-miterlimit:4;stroke-dasharray:none;stroke-dashoffset:0;stroke-opacity:1"
         inkscape:transform-center-y="60.691651" />
      <path
         inkscape:transform-center-y="-121.38331"
         style="opacity:0.93999999;fill:#eee0fd;fill-opacity:0.90499997;fill-rule:evenodd;stroke:none;stroke-width:4.07892084;stroke-linecap:round;stroke-linejoin:round;stroke-miterlimit:4;stroke-dasharray:none;stroke-dashoffset:0;stroke-opacity:1"
         d="m 354.32518,307.31534 c 0,-5.4117 2.9884,-9.79875 6.67481,-9.79875 3.68642,-1e-5 6.67483,4.38705 6.67482,9.79876 l 1e-5,23.32713 c 0,5.4117 -2.98841,9.79876 -6.67484,9.79874 -3.68638,1e-5 -6.6748,-4.38706 -6.6748,-9.79876 z"
         id="path4183"
         inkscape:connector-curvature="0"
         sodipodi:nodetypes="csccscc" />
      <path
         inkscape:transform-center-x="60.691653"
         sodipodi:nodetypes="csccscc"
         inkscape:connector-curvature="0"
         id="path4185"
         d="m 288.696,328.47765 c -2.70585,-4.68667 -2.31135,-9.98017 0.88118,-11.82337 3.19253,-1.84322 7.9741,0.46188 10.67994,5.14857 l 11.66358,20.20188 c 2.70585,4.68667 2.31134,9.98018 -0.88121,11.82337 -3.1925,1.8432 -7.97408,-0.4619 -10.67993,-5.14857 z"
         style="opacity:0.93999999;fill:#eee0fd;fill-opacity:0.90499997;fill-rule:evenodd;stroke:none;stroke-width:4.07892084;stroke-linecap:round;stroke-linejoin:round;stroke-miterlimit:4;stroke-dasharray:none;stroke-dashoffset:0;stroke-opacity:1"
         inkscape:transform-center-y="-105.12103" />
      <path
         style="opacity:0.93999999;fill:#eee0fd;fill-opacity:0.31372549;fill-rule:evenodd;stroke:none;stroke-width:4.07892084;stroke-linecap:round;stroke-linejoin:round;stroke-miterlimit:4;stroke-dasharray:none;stroke-dashoffset:0;stroke-opacity:1"
         d="m 494.04687,433.68739 c 5.4117,0 9.79875,2.9884 9.79875,6.67481 1e-5,3.68642 -4.38705,6.67483 -9.79876,6.67482 l -23.32712,1e-5 c -5.4117,0 -9.79876,-2.98841 -9.79875,-6.67484 -2e-5,-3.68639 4.38706,-6.6748 9.79876,-6.6748 z"
         id="path4203"
         inkscape:connector-curvature="0"
         sodipodi:nodetypes="csccscc"
         inkscape:transform-center-x="-121.38331" />
    </g>
  </g>
</svg>
